<?xml version="1.0" encoding="UTF-8"?>
<svg version="1.1" xmlns="http://www.w3.org/2000/svg" width="821" height="497">
<path d="M0 0 C34.34959406 27.65592316 62.19854975 74.47515992 74.2890625 116.65136719 C74.2890625 117.31136719 74.2890625 117.97136719 74.2890625 118.65136719 C65.0490625 118.65136719 55.8090625 118.65136719 46.2890625 118.65136719 C43.9378125 113.20636719 43.9378125 113.20636719 41.5390625 107.65136719 C26.17823365 72.57562282 4.9715278 24.68500498 -32.67578125 8.36621094 C-46.1037864 3.33746807 -58.47123685 3.30804943 -71.75 8.94042969 C-78.43196264 12.10378922 -84.11703881 15.84101104 -89.7109375 20.65136719 C-90.89429688 21.63556641 -90.89429688 21.63556641 -92.1015625 22.63964844 C-109.45470755 37.56444457 -121.93423755 57.59986047 -132.62792969 77.62939453 C-133.7672173 79.75644141 -134.92992314 81.86969036 -136.09375 83.98339844 C-151.48667973 112.2387052 -162.72834108 142.62779808 -173.27148438 172.96435547 C-173.49516693 173.60549789 -173.71884949 174.24664032 -173.9493103 174.9072113 C-174.55630443 176.64936235 -175.15938501 178.39287553 -175.76220703 180.13647461 C-176.7109375 182.65136719 -176.7109375 182.65136719 -177.7109375 183.65136719 C-179.71058732 183.73894722 -181.7132986 183.75833295 -183.71484375 183.74902344 C-184.92978516 183.74580078 -186.14472656 183.74257812 -187.39648438 183.73925781 C-188.67587891 183.73087891 -189.95527344 183.7225 -191.2734375 183.71386719 C-192.55669922 183.70935547 -193.83996094 183.70484375 -195.16210938 183.70019531 C-198.34509772 183.68836264 -201.52799512 183.67187787 -204.7109375 183.65136719 C-203.23617487 176.35396661 -201.139024 169.39443231 -198.7734375 162.33886719 C-198.18344971 160.57857178 -198.18344971 160.57857178 -197.58154297 158.78271484 C-190.14790408 136.92334297 -181.24958587 115.66643083 -171.7109375 94.65136719 C-171.33259766 93.80815918 -170.95425781 92.96495117 -170.56445312 92.09619141 C-157.93239051 64.02557112 -141.95974146 37.0787345 -120.7109375 14.65136719 C-120.27056152 14.17844238 -119.83018555 13.70551758 -119.37646484 13.21826172 C-86.77042625 -21.63334057 -38.87427193 -30.64233421 0 0 Z " fill="#000000" transform="translate(345.7109375,41.3486328125)"/>
<path d="M0 0 C2.92923951 2.37889754 5.00675748 4.62457934 6.5625 8.125 C6.5625 8.785 6.5625 9.445 6.5625 10.125 C7.243125 9.42375 7.92375 8.7225 8.625 8 C9.5992486 7.03666735 10.57886797 6.07874953 11.5625 5.125 C12.08199219 4.62097656 12.60148437 4.11695313 13.13671875 3.59765625 C21.4760095 -4.04183388 30.56784702 -6.21473772 41.68359375 -6.09375 C49.42760872 -5.50533095 56.96355058 -3.03103496 62.15234375 2.9609375 C70.01009933 13.60444994 69.99178642 25.93572826 69.85546875 38.609375 C69.84985893 40.16163722 69.84559541 41.71390484 69.84260559 43.26617432 C69.83126565 47.31037607 69.80189501 51.35424377 69.76849365 55.39831543 C69.73755578 59.54153935 69.72405009 63.68481835 69.70898438 67.828125 C69.67701227 75.92725215 69.62433618 84.02604577 69.5625 92.125 C59.9925 92.125 50.4225 92.125 40.5625 92.125 C40.51351562 88.28230469 40.46453125 84.43960938 40.4140625 80.48046875 C40.35994688 76.73051286 40.30268099 72.98061725 40.24511719 69.23071289 C40.20699601 66.63831127 40.17211473 64.04585979 40.140625 61.45336914 C40.09460666 57.7122219 40.03667418 53.97141297 39.9765625 50.23046875 C39.96501129 49.08418503 39.95346008 47.93790131 39.94155884 46.75688171 C39.97264717 33.14557775 39.97264717 33.14557775 34.5625 21.125 C30.10485274 18.39602641 25.64019059 18.48100022 20.5625 19.125 C15.67437285 21.67532721 13.27190626 26.00092613 11.5625 31.125 C10.9680027 35.83310442 10.95763012 40.50883747 10.953125 45.25 C10.93812074 46.60622103 10.92138892 47.96242395 10.90301514 49.31860352 C10.85958016 52.86294458 10.83939625 56.40703928 10.82427979 59.95159912 C10.80462176 63.57855502 10.76287501 67.20525468 10.72265625 70.83203125 C10.64555016 77.92985019 10.60495483 85.02655159 10.5625 92.125 C0.6625 92.125 -9.2375 92.125 -19.4375 92.125 C-19.49357422 85.78474609 -19.49357422 85.78474609 -19.55078125 79.31640625 C-19.58894416 75.92529036 -19.63001646 72.53423719 -19.6730423 69.14318085 C-19.71752302 65.57504969 -19.75699404 62.00703106 -19.78393555 58.4387207 C-19.81515655 54.33516331 -19.86993778 50.23220301 -19.92578125 46.12890625 C-19.93217117 44.86293106 -19.9385611 43.59695587 -19.94514465 42.2926178 C-20.0755779 34.38151463 -20.37709162 26.92732556 -25.5 20.5625 C-29.85575685 18.43095942 -33.68209459 18.407491 -38.4375 19.125 C-42.92621576 20.95373605 -44.69021915 23.10609796 -46.56347656 27.42138672 C-49.03757465 33.89675895 -49.04006923 40.1449773 -49.046875 47.0078125 C-49.06341125 48.30322968 -49.07994751 49.59864685 -49.09698486 50.93331909 C-49.14029218 54.34282399 -49.16057477 57.75207347 -49.17572021 61.1618042 C-49.19542519 64.65489424 -49.23716769 68.14772032 -49.27734375 71.640625 C-49.35429366 78.46891694 -49.39500504 85.29606054 -49.4375 92.125 C-59.3375 92.125 -69.2375 92.125 -79.4375 92.125 C-79.4375 60.775 -79.4375 29.425 -79.4375 -2.875 C-69.5375 -2.875 -59.6375 -2.875 -49.4375 -2.875 C-49.1075 0.755 -48.7775 4.385 -48.4375 8.125 C-47.53 7.09375 -46.6225 6.0625 -45.6875 5 C-33.59118603 -7.14568668 -14.22658449 -10.09125189 0 0 Z " fill="#000000" transform="translate(456.4375,203.875)"/>
<path d="M0 0 C5.38899359 4.74828263 9.49604281 10.26229877 12 17 C12.44666016 18.18529297 12.44666016 18.18529297 12.90234375 19.39453125 C16.25030463 30.17897665 15 38.99368206 15 51 C-4.8 51.33 -24.6 51.66 -45 52 C-41.74166754 62.00093739 -41.74166754 62.00093739 -34 67.75 C-23.70523256 72.03948643 -12.35338764 70.24907247 -2 67 C0.97 65.68 3.94 64.36 7 63 C7 70.59 7 78.18 7 86 C-9.98282282 92.79312913 -31.71566478 96.21352904 -49.4140625 89.328125 C-61.22930484 83.25987365 -68.54606573 75.55493067 -73 63 C-74.79041879 56.7148443 -75.35608938 50.70569113 -75.3125 44.1875 C-75.30512817 42.87483154 -75.30512817 42.87483154 -75.29760742 41.53564453 C-75.03317751 26.86588663 -70.52566257 14.95049182 -60.390625 4.26171875 C-43.97204312 -11.27154744 -18.6964095 -12.07798355 0 0 Z M-39 17 C-42.63640002 21.85672345 -44.80442451 26.02212254 -46 32 C-35.11 32 -24.22 32 -13 32 C-12.78113012 24.17859227 -12.78113012 24.17859227 -16 18 C-20.39194369 13.93745208 -23.83817088 12.59436121 -29.8828125 12.73828125 C-33.59265052 13.19687746 -36.29647419 14.51755691 -39 17 Z " fill="#000000" transform="translate(346,206)"/>
<path d="M0 0 C0 7.92 0 15.84 0 24 C-6.6875 21.5625 -6.6875 21.5625 -8.7644043 20.79907227 C-16.5191887 18.00213582 -25.17252353 16.10256149 -33.0625 19.4375 C-35.8159798 20.71857363 -35.8159798 20.71857363 -37 22 C-37.50135199 24.37221956 -37.50135199 24.37221956 -37 27 C-32.00318493 32.11277491 -24.90220423 33.98933986 -18.3671875 36.46875 C-8.67418553 40.26628228 -0.63595241 44.29347464 4 54 C6.46301078 61.38903234 6.26776948 71.45674624 3 78.5625 C-2.42478701 87.56855309 -10.22022405 91.73557823 -20 95 C-35.10603001 98.55820996 -52.46168921 97.00242952 -67 92 C-67 83.75 -67 75.5 -67 67 C-62 69 -62 69 -59.67578125 70 C-49.87886674 74.14547126 -40.61849608 76.23784429 -30 74 C-26.10888016 72.11670793 -26.10888016 72.11670793 -23.9375 68.5625 C-23.73607078 65.88648337 -23.73607078 65.88648337 -25.70068359 63.97412109 C-28.06553992 61.94372947 -29.95310498 60.95236263 -32.8515625 59.8515625 C-33.78613281 59.48546875 -34.72070312 59.119375 -35.68359375 58.7421875 C-36.65425781 58.37351562 -37.62492188 58.00484375 -38.625 57.625 C-59.16849066 49.79890832 -59.16849066 49.79890832 -63.5625 42.375 C-64.24505859 41.27285156 -64.24505859 41.27285156 -64.94140625 40.1484375 C-68.41918981 33.09020519 -68.33948494 22.94145784 -65.875 15.5625 C-65.01171875 13.7265625 -65.01171875 13.7265625 -64 12 C-63.48373047 11.11441406 -63.48373047 11.11441406 -62.95703125 10.2109375 C-57.47629659 2.55477278 -46.91798378 -1.74396919 -37.9375 -3.4375 C-26.37604728 -4.81023185 -10.78167639 -5.39083819 0 0 Z " fill="#000000" transform="translate(609,202)"/>
<path d="M0 0 C1.92845764 -0.01062721 1.92845764 -0.01062721 3.89587402 -0.02146912 C5.31852757 -0.01917535 6.74118079 -0.01666565 8.16383362 -0.01396179 C9.66368361 -0.0183095 11.16353139 -0.02349285 12.66337585 -0.02944946 C16.7356839 -0.04284429 20.80789916 -0.04341761 24.88022494 -0.04088616 C28.27989101 -0.0398168 31.67953828 -0.04469893 35.07920033 -0.04949158 C43.09945045 -0.0605884 51.11965375 -0.06102317 59.13990784 -0.05497742 C67.41398846 -0.04893624 75.6878991 -0.06125185 83.96195072 -0.08254749 C91.06609572 -0.10015975 98.17018658 -0.10616545 105.27435261 -0.10290974 C109.51721223 -0.10109617 113.75995059 -0.10374043 118.00279045 -0.11762428 C121.9927401 -0.13019198 125.98242461 -0.12826869 129.97237015 -0.11521339 C131.43608883 -0.11284575 132.89982612 -0.11558904 134.36352348 -0.12383652 C136.36276733 -0.1342887 138.36208658 -0.12440918 140.36132812 -0.11352539 C141.4797985 -0.11369313 142.59826887 -0.11386087 143.75063229 -0.1140337 C147.16012662 0.31276774 149.00568274 1.21353842 151.74415588 3.26069641 C153.74415588 6.26069641 153.74415588 6.26069641 153.61915588 9.76069641 C152.74415588 13.26069641 152.74415588 13.26069641 151.09037018 14.95563698 C148.01714756 16.66508789 145.84234282 16.63818918 142.32972717 16.64164734 C141.68801402 16.64632731 141.04630086 16.65100728 140.38514185 16.65582907 C138.23702421 16.66778561 136.08954377 16.65831985 133.94142151 16.64888 C132.40053943 16.65294544 130.85966026 16.65828716 129.31878662 16.66481018 C125.13493141 16.67849306 120.951298 16.67318117 116.76743889 16.66367292 C112.39040908 16.65608135 108.01339835 16.66312054 103.6363678 16.66783142 C96.28570646 16.67329044 88.93513553 16.66609353 81.58448792 16.65180969 C73.08430121 16.63548288 64.58433036 16.64077128 56.08414888 16.65728891 C48.78808128 16.67089962 41.49207868 16.67282548 34.19600248 16.6649729 C29.83749064 16.66029409 25.47908029 16.65967722 21.12057495 16.66958237 C17.02309367 16.67824374 12.92589089 16.67224545 8.82843971 16.6548996 C7.32399267 16.6509303 5.81952221 16.6520764 4.31508446 16.65868759 C2.26260063 16.66687608 0.2110113 16.65661555 -1.84141541 16.64164734 C-2.99030495 16.64051626 -4.13919449 16.63938519 -5.32289886 16.63821983 C-8.58131883 16.21880189 -9.94888318 15.56513301 -12.25584412 13.26069641 C-13.41964292 9.6917134 -13.56504849 7.97674864 -12.06834412 4.51069641 C-8.62257361 0.2331882 -5.33060155 0.00978722 0 0 Z " fill="#8EBC2C" transform="translate(644.2558441162109,239.7393035888672)"/>
<path d="M0 0 C1.28426376 -0.00571014 2.56852753 -0.01142029 3.89170837 -0.01730347 C5.31799307 -0.01854881 6.74427787 -0.01967391 8.17056274 -0.02069092 C9.6702639 -0.02531941 11.16996387 -0.03034412 12.66966248 -0.03573608 C16.74613637 -0.0488581 20.8225938 -0.05530453 24.89908552 -0.05974674 C27.44545813 -0.06267748 29.99182623 -0.06678226 32.53819656 -0.07125092 C40.50398722 -0.08492464 48.46976759 -0.0945922 56.43556917 -0.09845281 C65.63339621 -0.10293495 74.83107475 -0.12049055 84.02885664 -0.1494534 C91.13721979 -0.17106067 98.24554114 -0.18115656 105.35393679 -0.18249393 C109.60017582 -0.18354254 113.84627523 -0.18946238 118.09247971 -0.20731354 C122.08650457 -0.22377802 126.0802846 -0.22595772 130.07433128 -0.21717453 C131.53966744 -0.21640331 133.00501667 -0.2207581 134.47031975 -0.23063278 C136.47179109 -0.24332904 138.47336056 -0.23569222 140.47485352 -0.22705078 C141.59462271 -0.22851734 142.7143919 -0.2299839 143.86809349 -0.2314949 C147.54397812 0.22479754 150.22653336 1.50256486 152.8644104 4.14044189 C153.45729822 11.37367328 153.45729822 11.37367328 151.24107361 14.23986721 C148.13503612 16.72370934 146.36312939 16.64551396 142.41201782 16.65510559 C141.44332276 16.66552388 141.44332276 16.66552388 140.4550581 16.67615265 C138.29297958 16.69443663 136.13199664 16.68415567 133.96987915 16.67388916 C132.4191404 16.68094695 130.86840855 16.68969138 129.31768799 16.69999695 C125.10693406 16.72251538 120.89655556 16.71954579 116.68576431 16.71067548 C113.17166047 16.70556903 109.6576274 16.71285526 106.14353085 16.72014755 C97.85478987 16.73715398 89.56623298 16.73357284 81.27749634 16.71685791 C72.72266319 16.69992965 64.16834004 16.71577892 55.61356258 16.74808079 C48.27076659 16.77475729 40.92812955 16.78205815 33.58528996 16.77356571 C29.19875329 16.76863152 24.81252364 16.7708786 20.42602539 16.79135323 C16.30212386 16.80968049 12.17895745 16.80378865 8.05509567 16.77915382 C6.54097233 16.77413671 5.02679326 16.77765913 3.51271439 16.79030228 C1.44656096 16.80619177 -0.61715928 16.7913274 -2.68319702 16.76863098 C-3.83946091 16.76804467 -4.99572479 16.76745836 -6.18702698 16.76685429 C-9.1355896 16.14044189 -9.1355896 16.14044189 -11.54277039 13.82774258 C-13.1355896 11.14044189 -13.1355896 11.14044189 -13.0730896 7.51544189 C-11.81812928 2.99758475 -11.81812928 2.99758475 -9.1355896 1.14044189 C-5.85865584 0.04813064 -3.45017476 0.00917155 0 0 Z " fill="#8EBC2C" transform="translate(101.13558959960938,239.85955810546875)"/>
<path d="M0 0 C15.84 0 31.68 0 48 0 C48 15.84 48 31.68 48 48 C32.16 48 16.32 48 0 48 C0 32.16 0 16.32 0 0 Z " fill="#000000" transform="translate(23,224)"/>
<path d="M0 0 C10.23 0 20.46 0 31 0 C31 10.23 31 20.46 31 31 C20.77 31 10.54 31 0 31 C0 20.77 0 10.54 0 0 Z " fill="#000000" transform="translate(493,401)"/>
<path d="M0 0 C10.23 0 20.46 0 31 0 C31 10.23 31 20.46 31 31 C20.77 31 10.54 31 0 31 C0 20.77 0 10.54 0 0 Z " fill="#000000" transform="translate(454,336)"/>
<path d="M0 0 C10.23 0 20.46 0 31 0 C31 10.23 31 20.46 31 31 C20.77 31 10.54 31 0 31 C0 20.77 0 10.54 0 0 Z " fill="#000000" transform="translate(696,271)"/>
<path d="M0 0 C9.9 0 19.8 0 30 0 C30 10.23 30 20.46 30 31 C20.1 31 10.2 31 0 31 C0 20.77 0 10.54 0 0 Z " fill="#000000" transform="translate(564,445)"/>
<path d="M0 0 C9.9 0 19.8 0 30 0 C30 10.23 30 20.46 30 31 C20.1 31 10.2 31 0 31 C0 20.77 0 10.54 0 0 Z " fill="#000000" transform="translate(634,401)"/>
<path d="M0 0 C9.9 0 19.8 0 30 0 C30 10.23 30 20.46 30 31 C20.1 31 10.2 31 0 31 C0 20.77 0 10.54 0 0 Z " fill="#000000" transform="translate(673,336)"/>
</svg>
